<?xml version="1.0" encoding="UTF-8"?>
<svg width="128" height="128" viewBox="0 0 128 128" fill="none" xmlns="http://www.w3.org/2000/svg">
  <rect width="128" height="128" rx="24" fill="#2D2D2D"/>
  <g transform="translate(32, 40) scale(1.8)">
    <path fill-rule="evenodd" clip-rule="evenodd" d="M5.33333 4.06667C5.33333 1.82071 3.51262 0 1.26667 0H0V13.8333C0 17.2391 2.7609 20 6.16667 20C9.57243 20 12.3333 17.2391 12.3333 13.8333L12.3333 12.0333L12.3333 8.01667L12.3333 6.73334C12.3333 4.85557 13.8556 3.33334 15.7333 3.33334C17.6111 3.33334 19.1333 4.85557 19.1333 6.73334V17.3333C19.1333 18.8061 20.3272 20 21.8 20H24.7333V7.03334C24.7333 3.14893 21.5844 7.80279e-06 17.7 7.80279e-06C13.8156 7.80279e-06 10.6667 3.14893 10.6667 7.03334L10.6667 8.01667L10.6667 12.0333L10.6667 14C10.6667 15.4728 9.47275 16.6667 8 16.6667C6.52725 16.6667 5.33333 15.4728 5.33333 14V4.06667ZM25.5866 3.49163C27.2184 4.77318 28.3 6.76418 28.3 9V17.3333C28.3 18.8061 29.4939 20 30.9666 20H33.3333V9.66667C33.3333 9.44151 33.3216 9.21909 33.2986 9C32.9655 5.81556 30.2726 3.33334 26.9999 3.33334C26.5432 3.33334 26.0978 3.38169 25.6684 3.47355C25.6411 3.4794 25.6138 3.48543 25.5866 3.49163Z" fill="white"/>
  </g>
</svg>
